<?xml version="1.0"?>
<svg width="910.8" height="585.1" xmlns="http://www.w3.org/2000/svg" xmlns:svg="http://www.w3.org/2000/svg" enable-background="new 0 0 910.8 585.1" version="1.1" xml:space="preserve">
 <g class="layer">
  <title>Layer 1</title>
  <g id="wing"/>
  <g id="skull">
   <g id="svg_1">
    <path d="m333,352.6c-0.4,-0.2 -0.9,-0.2 -1.4,-0.2c-9.7,0.9 -21.7,2.8 -35,6.9c-10.8,3.4 -20,7.4 -27.5,11.4c-1.9,1 -2.3,3.5 -0.9,5c3.7,4.2 9.1,9.1 16.4,13.2c17.5,9.9 34.8,8.5 41.8,7.5c0.5,-0.1 0.9,-0.2 1.3,-0.5c15.3,-9.7 21.1,-24.8 16.6,-34.3c-0.7,-1.3 -3.3,-6.1 -11.3,-9z" fill="#ecd8ba" id="svg_2"/>
    <path d="m251.3,392.6c-2.3,1.3 -4.4,2.6 -5.9,4.2c-12,11.8 -12.4,28.2 -11.9,36.2c0.1,1.1 1.4,1.5 2.1,0.6c1.7,-2.1 3.9,-4.5 7,-6.8c3.2,-2.4 6.4,-3.8 8.8,-4.8c2.4,0.9 5.5,2.4 8.8,4.8c3,2.2 5.3,4.7 7,6.8c0.7,0.8 2,0.4 2.1,-0.6c0.5,-8 0.1,-24.4 -11.9,-36.2c-1.7,-1.6 -3.7,-2.9 -6.1,-4.2z" fill="#ecd8ba" id="svg_3"/>
    <path d="m898,86c6.8,-33.1 10.6,-62.6 12.8,-86c-147,34.3 -308.1,65.2 -482,89.1c-140.1,19.2 -273.1,31.7 -397.8,39.3l1,126l56.7,1.5l2.6,104.2c-4,19.9 -11.9,33.2 -33.1,35.8c-0.7,0.1 -1.4,0.1 -2.1,0.1l-56.1,6.4c1,60.7 2,121.3 3,182c50.9,1.9 143.9,1 221.9,-14.1l-1.6,-32l48.4,-10.2l13.4,39c26.5,-3.7 52.9,-7.7 79.1,-12.1c0.7,-0.1 1.4,-0.2 2.1,-0.4l-24.2,-58.1c9,-3.8 18.4,-8.2 28,-13.2l40.2,63.2c37.4,-7.5 74.3,-16.5 110.2,-28.1l-81.1,-80.2c11.1,-8.9 21.1,-18 30.1,-26.8l117.5,81.8c35.6,-15.9 69.8,-35.3 102.2,-59.4l-170.1,-80.7c4.8,-6.8 9,-13 12.6,-18.4c2.8,-4.2 5.4,-8.2 7.9,-12.2l193.6,74.4c28.2,-26.5 51.9,-55.1 71.9,-84.4l-234.3,-48.1c4.2,-9 8.1,-17.9 11.9,-26.8l249.3,31c21.7,-39.4 37.6,-79.1 49.2,-116.7l-269.8,10.9c4.2,-12.8 7.8,-24.8 10.9,-35.9l275.7,-40.9zm-537.3,255.6c28.5,33 -10.2,85.3 -15.5,89.7c-9.5,7.8 -39.9,-8 -35.1,0.2c3.6,6.2 7,52.9 7,52.9l-9.4,0l-4.5,-16.3l-8,-0.1l-1.6,16.4l-16.4,0l-1.6,-15.6l-5.5,-0.8l-0.8,16.4l-13.3,0l-0.6,-16.8l-10.8,0l-0.6,16.8l-13.3,0l-0.8,-16.4l-5.5,0.8l-1.6,15.6l-16.4,0l-1.6,-16.4l-8,0.1l-4.5,16.3l-9.4,0c0,0 3.3,-46.8 7,-52.9c4.8,-8.2 -25.5,7.6 -35.1,-0.2c-5.3,-4.3 -44,-56.7 -15.5,-89.7c7.1,-8.2 -27.9,-69.3 -9.5,-123.3c21.7,-63.3 85.8,-73.2 113.5,-74.5l0,0c0,0 2.3,-0.2 6.4,-0.2c0,0 0.1,0 0.1,0c0,0 0.1,0 0.1,0c4.1,0 6.4,0.2 6.4,0.2l0,0c27.7,1.3 91.9,11.2 113.5,74.5c18.9,54 -16.2,115.1 -9.1,123.3z" fill="#ecd8ba" id="svg_4"/>
    <path d="m231.6,370.7c-7.5,-3.9 -16.7,-8 -27.5,-11.4c-13.3,-4.2 -25.4,-6.1 -35,-6.9c-0.5,0 -0.9,0 -1.4,0.2c-8,2.9 -10.6,7.7 -11.3,9.1c-4.5,9.4 1.3,24.6 16.6,34.3c0.4,0.2 0.8,0.4 1.3,0.5c7,1 24.3,2.4 41.8,-7.5c7.3,-4.1 12.6,-9 16.4,-13.2c1.4,-1.6 0.9,-4.1 -0.9,-5.1z" fill="#ecd8ba" id="svg_5"/>
   </g>
  </g>
 </g>
</svg>